<?xml version="1.0" encoding="UTF-8" standalone="no"?>
<!-- Created with Inkscape (http://www.inkscape.org/) -->

<svg
   width="100mm"
   height="61.419731mm"
   viewBox="0 0 99.999999 61.419731"
   version="1.1"
   id="svg1558"
   inkscape:version="1.2 (1:1.2+202206011327+fc4e4096c5)"
   sodipodi:docname="book_pictogram.svg"
   xmlns:inkscape="http://www.inkscape.org/namespaces/inkscape"
   xmlns:sodipodi="http://sodipodi.sourceforge.net/DTD/sodipodi-0.dtd"
   xmlns="http://www.w3.org/2000/svg"
   xmlns:svg="http://www.w3.org/2000/svg">
  <sodipodi:namedview
     id="namedview1560"
     pagecolor="#505050"
     bordercolor="#ffffff"
     borderopacity="1"
     inkscape:showpageshadow="0"
     inkscape:pageopacity="0"
     inkscape:pagecheckerboard="1"
     inkscape:deskcolor="#505050"
     inkscape:document-units="mm"
     showgrid="false"
     inkscape:zoom="0.75722503"
     inkscape:cx="335.43529"
     inkscape:cy="347.9811"
     inkscape:window-width="1920"
     inkscape:window-height="1016"
     inkscape:window-x="0"
     inkscape:window-y="27"
     inkscape:window-maximized="1"
     inkscape:current-layer="layer1" />
  <defs
     id="defs1555">
    <rect
       x="222.66435"
       y="65.199341"
       width="183.89574"
       height="139.06198"
       id="rect5295" />
  </defs>
  <g
     inkscape:label="Layer 1"
     inkscape:groupmode="layer"
     id="layer1"
     transform="translate(100.02426,-57.735505)">
    <g
       id="g856"
       transform="matrix(0.58080094,0,0,0.57837769,-136.04008,56.59709)"
       style="stroke-width:1.72536">
      <path
         id="rect7707-3"
         style="fill:none;stroke:#e77800;stroke-width:1.72536;stroke-linecap:square;stroke-linejoin:round"
         d="m 184.66132,32.554512 h 3.20243 V 82.199371 H 108.3335 V 32.554512 h 2.82719"
         sodipodi:nodetypes="cccccc" />
      <path
         id="path7756-6"
         style="fill:none;stroke:#e77800;stroke-width:1.72536;stroke-linecap:square;stroke-linejoin:round;stroke-dasharray:none"
         d="m 181.90428,62.623891 c -3.15224,-2.200107 -30.83892,4.466983 -30.83892,4.466983 m 30.83892,-16.871101 c -3.15224,-2.200107 -30.83892,4.466983 -30.83892,4.466983 m 30.83892,-12.073865 c -3.15224,-2.200107 -30.83892,4.466983 -30.83892,4.466983 m 30.83892,-11.188692 c -3.15224,-2.200107 -30.83892,4.466983 -30.83892,4.466983 m 33.55013,-11.83535 c -3.69891,-2.581658 -36.18712,4.113244 -36.18712,4.113244 v 49.344288 c 0,0 32.61593,-6.147798 36.18712,-4.113244 z m -70.46087,34.101076 c 3.15224,-2.200107 30.83892,4.466983 30.83892,4.466983 M 114.15462,50.219773 c 3.15224,-2.200107 30.83892,4.466983 30.83892,4.466983 M 114.15462,42.612891 c 3.15224,-2.200107 30.83892,4.466983 30.83892,4.466983 M 114.15462,35.891182 c 3.15224,-2.200107 30.83892,4.466983 30.83892,4.466983 m -33.55013,-11.83535 c 3.69891,-2.581658 36.18712,4.113244 36.18712,4.113244 v 49.344288 c 0,0 -32.61593,-6.147798 -36.18712,-4.113244 z" />
    </g>
  </g>
</svg>
