<?xml version="1.0" encoding="UTF-8" standalone="no"?>
<!-- Created with Inkscape (http://www.inkscape.org/) -->

<svg
   width="100mm"
   height="61.419731mm"
   viewBox="0 0 99.999999 61.419731"
   version="1.1"
   id="svg1558"
   inkscape:version="1.2.2 (1:1.2.2+202212051550+b0a8486541)"
   sodipodi:docname="tools_pictogram.svg"
   xmlns:inkscape="http://www.inkscape.org/namespaces/inkscape"
   xmlns:sodipodi="http://sodipodi.sourceforge.net/DTD/sodipodi-0.dtd"
   xmlns="http://www.w3.org/2000/svg"
   xmlns:svg="http://www.w3.org/2000/svg">
  <sodipodi:namedview
     id="namedview1560"
     pagecolor="#505050"
     bordercolor="#ffffff"
     borderopacity="1"
     inkscape:showpageshadow="0"
     inkscape:pageopacity="0"
     inkscape:pagecheckerboard="1"
     inkscape:deskcolor="#505050"
     inkscape:document-units="mm"
     showgrid="false"
     inkscape:zoom="4.2835116"
     inkscape:cx="158.63153"
     inkscape:cy="185.94557"
     inkscape:window-width="1920"
     inkscape:window-height="1016"
     inkscape:window-x="0"
     inkscape:window-y="27"
     inkscape:window-maximized="1"
     inkscape:current-layer="layer1" />
  <defs
     id="defs1555">
    <rect
       x="222.66435"
       y="65.199341"
       width="183.89574"
       height="139.06198"
       id="rect5295" />
  </defs>
  <g
     inkscape:label="Layer 1"
     inkscape:groupmode="layer"
     id="layer1"
     transform="translate(100.02426,-57.735505)">
    <path
       style="fill:none;stroke:#e77800;stroke-width:1;stroke-linecap:square;stroke-linejoin:round;stroke-opacity:1"
       d="m -50.402408,95.330899 c 0,0 2.837642,3.700025 4.932209,5.794591 l 4.053911,4.05391 c 4.189133,4.18914 7.380643,7.78961 11.648097,3.52215 4.267454,-4.26745 0.667161,-7.45914 -3.521977,-11.648274 l -4.053907,-4.053911 c -2.094565,-2.094568 -5.79468,-4.93212 -5.79468,-4.93212 z"
       id="path304"
       sodipodi:nodetypes="cssssscc" />
    <path
       style="fill:none;stroke:#e77800;stroke-width:1;stroke-linecap:square;stroke-linejoin:round;stroke-opacity:1"
       d="m -72.197565,68.183079 2.124881,3.425473 3.425474,2.124881 5.550532,5.550533 6.867553,6.867552 1.911079,-1.911079 -6.867554,-6.867552 -5.550532,-5.550532 -2.128436,-3.421918 -3.421919,-2.128437 z"
       id="path7698-5"
       sodipodi:nodetypes="ccccccccccc" />
    <path
       style="fill:none;fill-opacity:1;stroke:#e77800;stroke-width:1;stroke-linecap:square;stroke-linejoin:round;stroke-dasharray:none;stroke-opacity:1"
       d="m -32.618771,67.044583 a 6.9884153,6.919459 45.000059 0 0 -7.411849,1.524525 6.9884153,6.919459 45.000059 0 0 -1.527724,7.415404 l -30.347628,30.347628 3.995614,3.99561 30.347804,-30.347802 a 6.9884153,6.919459 45.000059 0 0 7.415049,-1.527724 6.9884153,6.919459 45.000059 0 0 1.524523,-7.411849 l -4.556872,4.556872 -3.995789,-3.995793 z"
       id="rect7688-5" />
  </g>
</svg>
