<?xml version="1.0" encoding="UTF-8" standalone="no"?>
<!-- Created with Inkscape (http://www.inkscape.org/) -->

<svg
   version="1.1"
   id="svg2"
   width="794.07825"
   height="363.60489"
   viewBox="0 0 794.07826 363.60489"
   sodipodi:docname="traj_ensemble_pictograms.svg"
   inkscape:version="1.2.2 (1:1.2.2+202212051550+b0a8486541)"
   xmlns:inkscape="http://www.inkscape.org/namespaces/inkscape"
   xmlns:sodipodi="http://sodipodi.sourceforge.net/DTD/sodipodi-0.dtd"
   xmlns="http://www.w3.org/2000/svg"
   xmlns:svg="http://www.w3.org/2000/svg">
  <defs
     id="defs6">
    <clipPath
       clipPathUnits="userSpaceOnUse"
       id="clipPath1778">
      <g
         id="g1792"
         style="stroke-width:1">
        <g
           id="g1790"
           style="stroke-width:1">
          <g
             id="g1788"
             style="stroke-width:1">
            <g
               id="g1786"
               style="stroke-width:1">
              <g
                 id="g1784"
                 style="stroke-width:1">
                <g
                   id="g1782"
                   style="stroke-width:1">
                  <path
                     d="m 0,1109 h 619 v 647 H 0 Z"
                     id="path1780"
                     style="stroke-width:1" />
                </g>
              </g>
            </g>
          </g>
        </g>
      </g>
    </clipPath>
    <clipPath
       clipPathUnits="userSpaceOnUse"
       id="clipPath1809">
      <g
         id="g1823"
         style="stroke-width:1">
        <g
           id="g1821"
           style="stroke-width:1">
          <g
             id="g1819"
             style="stroke-width:1">
            <g
               id="g1817"
               style="stroke-width:1">
              <g
                 id="g1815"
                 style="stroke-width:1">
                <g
                   id="g1813"
                   style="stroke-width:1">
                  <path
                     d="m 0,1109 h 619 v 647 H 0 Z"
                     id="path1811"
                     style="stroke-width:1" />
                </g>
              </g>
            </g>
          </g>
        </g>
      </g>
    </clipPath>
    <clipPath
       clipPathUnits="userSpaceOnUse"
       id="clipPath1840">
      <g
         id="g1854"
         style="stroke-width:1">
        <g
           id="g1852"
           style="stroke-width:1">
          <g
             id="g1850"
             style="stroke-width:1">
            <g
               id="g1848"
               style="stroke-width:1">
              <g
                 id="g1846"
                 style="stroke-width:1">
                <g
                   id="g1844"
                   style="stroke-width:1">
                  <path
                     d="m 0,1109 h 619 v 647 H 0 Z"
                     id="path1842"
                     style="stroke-width:1" />
                </g>
              </g>
            </g>
          </g>
        </g>
      </g>
    </clipPath>
    <clipPath
       clipPathUnits="userSpaceOnUse"
       id="clipPath1871">
      <g
         id="g1885"
         style="stroke-width:1">
        <g
           id="g1883"
           style="stroke-width:1">
          <g
             id="g1881"
             style="stroke-width:1">
            <g
               id="g1879"
               style="stroke-width:1">
              <g
                 id="g1877"
                 style="stroke-width:1">
                <g
                   id="g1875"
                   style="stroke-width:1">
                  <path
                     d="m 0,1109 h 619 v 647 H 0 Z"
                     id="path1873"
                     style="stroke-width:1" />
                </g>
              </g>
            </g>
          </g>
        </g>
      </g>
    </clipPath>
    <clipPath
       clipPathUnits="userSpaceOnUse"
       id="clipPath1902">
      <g
         id="g1916"
         style="stroke-width:1">
        <g
           id="g1914"
           style="stroke-width:1">
          <g
             id="g1912"
             style="stroke-width:1">
            <g
               id="g1910"
               style="stroke-width:1">
              <g
                 id="g1908"
                 style="stroke-width:1">
                <g
                   id="g1906"
                   style="stroke-width:1">
                  <path
                     d="m 0,1109 h 619 v 647 H 0 Z"
                     id="path1904"
                     style="stroke-width:1" />
                </g>
              </g>
            </g>
          </g>
        </g>
      </g>
    </clipPath>
  </defs>
  <sodipodi:namedview
     id="namedview4"
     pagecolor="#505050"
     bordercolor="#ffffff"
     borderopacity="1"
     inkscape:showpageshadow="0"
     inkscape:pageopacity="0"
     inkscape:pagecheckerboard="1"
     inkscape:deskcolor="#505050"
     showgrid="false"
     inkscape:zoom="0.33729258"
     inkscape:cx="-573.68591"
     inkscape:cy="69.672449"
     inkscape:window-width="3440"
     inkscape:window-height="1376"
     inkscape:window-x="2560"
     inkscape:window-y="27"
     inkscape:window-maximized="1"
     inkscape:current-layer="g10" />
  <g
     id="g10"
     inkscape:groupmode="layer"
     inkscape:label="Page 1"
     transform="matrix(1.3333333,0,0,1.3333333,-67.567542,-1742.3328)">
    <path
       d="m 53.598,1306.836 h 589.715 c 1.57,0 2.835,0.805 2.835,1.805 v 268.922 c 0,1 -1.265,1.804 -2.835,1.804 H 53.598 c -1.571,0 -2.836,-0.804 -2.836,-1.804 v -268.922 c 0,-1 1.265,-1.805 2.836,-1.805 z"
       style="fill:none;stroke:#eaeaea;stroke-width:0.172684;stroke-linecap:square;stroke-linejoin:miter;stroke-miterlimit:4;stroke-dasharray:none;stroke-opacity:1"
       id="path22" />
    <path
       d="m 395.926,1517.832 v 20.137 l 15.84,2.789 6.886,-18.918 c 10.77,0.308 21.489,-1.582 31.504,-5.555 l 12.938,15.422 13.929,-8.039 -6.886,-18.922 c 8.445,-6.687 15.445,-15.023 20.562,-24.504 l 19.828,3.5 5.5,-15.117 -17.433,-10.062 c 2.168,-10.559 2.172,-21.442 0,-31.993 l 17.433,-10.066 -5.5,-15.113 -19.828,3.496 c -5.117,-9.481 -12.113,-17.817 -20.562,-24.508 l 6.886,-18.918 -13.925,-8.039 -12.946,15.422 c -10.011,-3.973 -20.73,-5.86 -31.504,-5.555 l -6.882,-18.918 -15.84,2.793 v 20.133 c -10.223,3.394 -19.653,8.836 -27.703,15.996 l -17.434,-10.07 -10.34,12.32 12.942,15.426 c -5.653,9.172 -9.375,19.398 -10.942,30.058 l -19.828,3.496 v 16.082 l 19.828,3.497 c 1.571,10.66 5.289,20.886 10.942,30.058 l -12.942,15.426 10.336,12.316 17.438,-10.062 c 8.054,7.156 17.476,12.598 27.703,15.992 z"
       style="fill:#ffffff;fill-opacity:1;fill-rule:evenodd;stroke:none"
       id="path278"
       clip-path="url(#clipPath1778)" />
    <path
       d="m 268.734,1431.43 8.77,20.429 15.426,-2.718 1.25,-22.196 c 8.14,-3.765 15.133,-9.632 20.254,-16.996 l 22.074,2.621 5.359,-14.718 -18.597,-12.184 c 0.808,-8.93 -0.774,-17.918 -4.59,-26.035 l 13.308,-17.809 -10.07,-11.996 -19.848,10.012 c -7.332,-5.168 -15.906,-8.289 -24.843,-9.043 l -8.766,-20.426 -15.426,2.719 -1.254,22.195 c -8.14,3.766 -15.129,9.629 -20.254,16.992 l -22.074,-2.621 -5.359,14.723 18.597,12.18 c -0.808,8.933 0.778,17.918 4.59,26.035 l -13.304,17.808 10.066,12 19.848,-10.015 c 7.332,5.168 15.906,8.289 24.843,9.043 z"
       style="fill:#ffffff;fill-opacity:1;fill-rule:evenodd;stroke:none"
       id="path292"
       clip-path="url(#clipPath1871)" />
    <path
       d="m 229.93,1552.98 3.113,21.52 15.258,1.332 6.801,-20.644 c 8.644,-1.5 16.73,-5.27 23.433,-10.93 l 20.188,8.062 8.785,-12.543 -14.481,-16.214 c 3.024,-8.231 3.801,-17.122 2.25,-25.758 l 17.078,-13.453 -6.472,-13.879 -21.281,4.433 c -5.618,-6.734 -12.926,-11.855 -21.18,-14.828 l -3.109,-21.515 -15.262,-1.336 -6.797,20.648 c -8.645,1.496 -16.731,5.27 -23.434,10.926 l -20.187,-8.063 -8.785,12.547 14.48,16.215 c -3.023,8.23 -3.801,17.121 -2.254,25.754 l -17.074,13.453 6.473,13.883 21.281,-4.434 c 5.617,6.735 12.926,11.852 21.176,14.824 z"
       style="fill:#ffffff;fill-opacity:1;fill-rule:evenodd;stroke:none"
       id="path306"
       clip-path="url(#clipPath1809)" />
    <path
       d="m 328.297,1520.168 c 36.266,54.707 110.012,69.66 164.719,33.395 28.695,-19.024 47.734,-49.551 52.183,-83.692 l 7.895,0.371 -12.965,-10.426 -14.738,9.122 7.89,0.375 c -8.176,58.5 -62.226,99.296 -120.73,91.121 -30.348,-4.239 -57.418,-21.293 -74.348,-46.832 z"
       style="fill:#729fcf;fill-opacity:1;fill-rule:evenodd;stroke:none"
       id="path320"
       clip-path="url(#clipPath1840)" />
    <path
       d="m 189.586,1430.457 c -20.816,14.641 -34.555,37.324 -37.898,62.574 l -7.872,-0.207 13.039,10.121 14.633,-9.382 -7.863,-0.211 c 3.188,-21.489 15.039,-40.711 32.789,-53.192 z"
       style="fill:#729fcf;fill-opacity:1;fill-rule:evenodd;stroke:none"
       id="path334"
       clip-path="url(#clipPath1902)" />
  </g>
</svg>
