<?xml version="1.0" encoding="UTF-8" standalone="no"?>
<svg
   width="600pt"
   height="274.99988pt"
   viewBox="0 0 600 274.99988"
   version="1.1"
   id="svg300"
   sodipodi:docname="Zeichnung.pdf"
   xml:space="preserve"
   xmlns:inkscape="http://www.inkscape.org/namespaces/inkscape"
   xmlns:sodipodi="http://sodipodi.sourceforge.net/DTD/sodipodi-0.dtd"
   xmlns="http://www.w3.org/2000/svg"
   xmlns:svg="http://www.w3.org/2000/svg"><sodipodi:namedview
     id="namedview302"
     pagecolor="#ffffff"
     bordercolor="#999999"
     borderopacity="1"
     inkscape:showpageshadow="0"
     inkscape:pageopacity="0"
     inkscape:pagecheckerboard="0"
     inkscape:deskcolor="#d1d1d1"
     inkscape:document-units="pt"
     showgrid="false" /><defs
     id="defs60"><filter
       id="filter-remove-color"
       x="0"
       y="0"
       width="1"
       height="1"><feColorMatrix
         color-interpolation-filters="sRGB"
         values="0 0 0 0 1 0 0 0 0 1 0 0 0 0 1 0 0 0 1 0"
         id="feColorMatrix2" /></filter></defs><g
     id="g2484"
     transform="translate(27.0188,-920.94931)"><path
       fill="none"
       stroke-width="8.50395"
       stroke-linecap="butt"
       stroke-linejoin="miter"
       stroke="#ffffff"
       stroke-opacity="1"
       stroke-miterlimit="4"
       d="m 190.72656,1090.5039 c 76.92188,0 153.83985,0 230.75781,0"
       id="path272" /><path
       fill="none"
       stroke-width="2.92677"
       stroke-linecap="square"
       stroke-linejoin="miter"
       stroke="#ffffff"
       stroke-opacity="1"
       stroke-miterlimit="4"
       d="m 156.26953,-1090.5039 c 0,8.375 -6.78906,15.1641 -15.16406,15.1641 -8.375,0 -15.16406,-6.7891 -15.16406,-15.1641 0,-8.3789 6.78906,-15.168 15.16406,-15.168 8.375,0 15.16406,6.7891 15.16406,15.168 z m 0,0"
       transform="scale(1,-1)"
       id="path274" /><path
       fill-rule="evenodd"
       fill="#ffffff"
       fill-opacity="1"
       d="m 156.26953,1090.5039 c 0,-8.375 -6.78906,-15.1641 -15.16406,-15.1641 -8.375,0 -15.16406,6.7891 -15.16406,15.1641 0,8.3789 6.78906,15.168 15.16406,15.168 8.375,0 15.16406,-6.7891 15.16406,-15.168 z m 0,0"
       id="path276" /><path
       fill="none"
       stroke-width="8.50395"
       stroke-linecap="butt"
       stroke-linejoin="miter"
       stroke="#ffffff"
       stroke-opacity="1"
       stroke-miterlimit="4"
       d="m 190.72656,962.28516 c 76.92188,0 153.83985,0 230.75781,0"
       id="path278" /><path
       fill="none"
       stroke-width="2.92677"
       stroke-linecap="square"
       stroke-linejoin="miter"
       stroke="#ffffff"
       stroke-opacity="1"
       stroke-miterlimit="4"
       d="m 156.26953,-962.28516 c 0,8.375 -6.78906,15.16797 -15.16406,15.16797 -8.375,0 -15.16406,-6.79297 -15.16406,-15.16797 0,-8.375 6.78906,-15.16406 15.16406,-15.16406 8.375,0 15.16406,6.78906 15.16406,15.16406 z m 0,0"
       transform="scale(1,-1)"
       id="path280" /><path
       fill-rule="evenodd"
       fill="#ffffff"
       fill-opacity="1"
       d="m 156.26953,962.28516 c 0,-8.375 -6.78906,-15.16797 -15.16406,-15.16797 -8.375,0 -15.16406,6.79297 -15.16406,15.16797 0,8.375 6.78906,15.16406 15.16406,15.16406 8.375,0 15.16406,-6.78906 15.16406,-15.16406 z m 0,0"
       id="path282" /><path
       fill="none"
       stroke-width="8.50395"
       stroke-linecap="butt"
       stroke-linejoin="miter"
       stroke="#ffffff"
       stroke-opacity="1"
       stroke-miterlimit="4"
       d="m 190.72656,1154.6172 c 76.92188,0 153.83985,0 230.75781,0"
       id="path284" /><path
       fill="none"
       stroke-width="2.92677"
       stroke-linecap="square"
       stroke-linejoin="miter"
       stroke="#ffffff"
       stroke-opacity="1"
       stroke-miterlimit="4"
       d="m 156.26953,-1154.6172 c 0,8.375 -6.78906,15.168 -15.16406,15.168 -8.375,0 -15.16406,-6.793 -15.16406,-15.168 0,-8.375 6.78906,-15.1641 15.16406,-15.1641 8.375,0 15.16406,6.7891 15.16406,15.1641 z m 0,0"
       transform="scale(1,-1)"
       id="path286" /><path
       fill-rule="evenodd"
       fill="#ffffff"
       fill-opacity="1"
       d="m 156.26953,1154.6172 c 0,-8.375 -6.78906,-15.168 -15.16406,-15.168 -8.375,0 -15.16406,6.793 -15.16406,15.168 0,8.375 6.78906,15.1641 15.16406,15.1641 8.375,0 15.16406,-6.7891 15.16406,-15.1641 z m 0,0"
       id="path288" /><path
       fill="none"
       stroke-width="8.50395"
       stroke-linecap="butt"
       stroke-linejoin="miter"
       stroke="#ffffff"
       stroke-opacity="1"
       stroke-miterlimit="4"
       d="m 190.72656,1026.3945 c 76.92188,0 153.83985,0 230.75781,0"
       id="path290" /><path
       fill="none"
       stroke-width="2.92677"
       stroke-linecap="square"
       stroke-linejoin="miter"
       stroke="#ffffff"
       stroke-opacity="1"
       stroke-miterlimit="4"
       d="m 156.26953,-1026.3945 c 0,8.375 -6.78906,15.164 -15.16406,15.164 -8.375,0 -15.16406,-6.789 -15.16406,-15.164 0,-8.375 6.78906,-15.168 15.16406,-15.168 8.375,0 15.16406,6.793 15.16406,15.168 z m 0,0"
       transform="scale(1,-1)"
       id="path292" /><path
       fill-rule="evenodd"
       fill="#ffffff"
       fill-opacity="1"
       d="m 156.26953,1026.3945 c 0,-8.375 -6.78906,-15.164 -15.16406,-15.164 -8.375,0 -15.16406,6.789 -15.16406,15.164 0,8.375 6.78906,15.168 15.16406,15.168 8.375,0 15.16406,-6.793 15.16406,-15.168 z m 0,0"
       id="path294" /></g></svg>
