<?xml version="1.0" encoding="UTF-8" standalone="no"?>
<svg
   width="600.00006pt"
   height="275pt"
   viewBox="0 0 600.00006 275"
   version="1.1"
   id="svg300"
   sodipodi:docname="Zeichnung.pdf"
   xml:space="preserve"
   xmlns:inkscape="http://www.inkscape.org/namespaces/inkscape"
   xmlns:sodipodi="http://sodipodi.sourceforge.net/DTD/sodipodi-0.dtd"
   xmlns="http://www.w3.org/2000/svg"
   xmlns:svg="http://www.w3.org/2000/svg"><sodipodi:namedview
     id="namedview302"
     pagecolor="#ffffff"
     bordercolor="#999999"
     borderopacity="1"
     inkscape:showpageshadow="0"
     inkscape:pageopacity="0"
     inkscape:pagecheckerboard="0"
     inkscape:deskcolor="#d1d1d1"
     inkscape:document-units="pt"
     showgrid="false" /><defs
     id="defs60"><filter
       id="filter-remove-color"
       x="0"
       y="0"
       width="1"
       height="1"><feColorMatrix
         color-interpolation-filters="sRGB"
         values="0 0 0 0 1 0 0 0 0 1 0 0 0 0 1 0 0 0 1 0"
         id="feColorMatrix2" /></filter></defs><g
     id="g2526"
     transform="translate(-58.9904,12.48722)"><path
       fill="none"
       stroke-width="5.66929"
       stroke-linecap="butt"
       stroke-linejoin="miter"
       stroke="#ffffff"
       stroke-opacity="1"
       stroke-miterlimit="4"
       d="m 116.99219,141.65234 c 25.65625,0 51.20312,0 79,-17.0625 27.80078,-17.0625 57.38281,-50.90234 90.98828,-41.644527 33.60547,9.257812 71.10547,61.753907 115.57031,78.746097 44.46484,16.99218 95.88672,-1.52344 129.50781,-10.78125 33.6211,-9.25782 49.42969,-9.25782 65.24219,-9.25782"
       id="path210" /><path
       fill-rule="evenodd"
       fill="#ffffff"
       fill-opacity="1"
       stroke-width="4.2591"
       stroke-linecap="butt"
       stroke-linejoin="miter"
       stroke="#ffffff"
       stroke-opacity="1"
       stroke-miterlimit="4"
       d="M 615.73047,141.65234 588.10156,157.625 v -31.94141 z m 0,0"
       id="path212" /><path
       fill="none"
       stroke-width="5.85354"
       stroke-linecap="square"
       stroke-linejoin="miter"
       stroke="rgb(44.7052%, 62.35199%, 81.175232%)"
       stroke-opacity="1"
       stroke-miterlimit="4"
       d="m 395.91797,136.87109 c 0,16.75 -13.58203,30.32813 -30.33203,30.32813 -16.75,0 -30.33203,-13.57813 -30.33203,-30.32813 0,-16.7539 13.58203,-30.33203 30.33203,-30.33203 16.75,0 30.33203,13.57813 30.33203,30.33203 z m 0,0"
       id="path214"
       style="fill:#459db9;fill-opacity:0.941176;stroke:#459db9;stroke-opacity:1" /><path
       fill-rule="evenodd"
       fill="rgb(44.7052%, 62.35199%, 81.175232%)"
       fill-opacity="1"
       d="m 395.91797,136.87109 c 0,16.75 -13.58203,30.32813 -30.33203,30.32813 -16.75,0 -30.33203,-13.57813 -30.33203,-30.32813 0,-16.7539 13.58203,-30.33203 30.33203,-30.33203 16.75,0 30.33203,13.57813 30.33203,30.33203 z m 0,0"
       id="path216"
       style="fill:#459db9;fill-opacity:0.941176;stroke:#459db9;stroke-opacity:1" /><path
       fill="none"
       stroke-width="5.85354"
       stroke-linecap="square"
       stroke-linejoin="miter"
       stroke="rgb(44.7052%, 62.35199%, 81.175232%)"
       stroke-opacity="1"
       stroke-miterlimit="4"
       d="m 161.58203,130.96484 c 0,16.75391 -13.57812,30.33203 -30.32812,30.33203 -16.75391,0 -30.33203,-13.57812 -30.33203,-30.33203 0,-16.75 13.57812,-30.32812 30.33203,-30.32812 16.75,0 30.32812,13.57812 30.32812,30.32812 z m 0,0"
       id="path218"
       style="fill:#459db9;fill-opacity:0.941176;stroke:#459db9;stroke-opacity:1" /><path
       fill-rule="evenodd"
       fill="rgb(44.7052%, 62.35199%, 81.175232%)"
       fill-opacity="1"
       d="m 161.58203,130.96484 c 0,16.75391 -13.57812,30.33203 -30.32812,30.33203 -16.75391,0 -30.33203,-13.57812 -30.33203,-30.33203 0,-16.75 13.57812,-30.32812 30.33203,-30.32812 16.75,0 30.32812,13.57812 30.32812,30.32812 z m 0,0"
       id="path220"
       style="fill:#459db9;fill-opacity:0.941176;stroke:#459db9;stroke-opacity:1" /></g></svg>
