<?xml version="1.0" encoding="UTF-8" standalone="no"?>
<svg
   width="600pt"
   height="275pt"
   viewBox="0 0 600 275"
   version="1.1"
   id="svg300"
   sodipodi:docname="Zeichnung.pdf"
   xml:space="preserve"
   xmlns:inkscape="http://www.inkscape.org/namespaces/inkscape"
   xmlns:sodipodi="http://sodipodi.sourceforge.net/DTD/sodipodi-0.dtd"
   xmlns="http://www.w3.org/2000/svg"
   xmlns:svg="http://www.w3.org/2000/svg"><sodipodi:namedview
     id="namedview302"
     pagecolor="#ffffff"
     bordercolor="#999999"
     borderopacity="1"
     inkscape:showpageshadow="0"
     inkscape:pageopacity="0"
     inkscape:pagecheckerboard="0"
     inkscape:deskcolor="#d1d1d1"
     inkscape:document-units="pt"
     showgrid="false" /><defs
     id="defs60"><filter
       id="filter-remove-color"
       x="0"
       y="0"
       width="1"
       height="1"><feColorMatrix
         color-interpolation-filters="sRGB"
         values="0 0 0 0 1 0 0 0 0 1 0 0 0 0 1 0 0 0 1 0"
         id="feColorMatrix2" /></filter><clipPath
       id="clip-4"><path
         clip-rule="nonzero"
         d="m 322,1344 h 195 v 197 H 322 Z m 0,0"
         id="path20" /></clipPath><clipPath
       id="clip-5"><path
         clip-rule="nonzero"
         d="M -4.722656,1341.5469 342.35937,1755.1836 618.33594,1523.6172 271.25,1109.9766 Z m 0,0"
         id="path23" /></clipPath><clipPath
       id="clip-6"><path
         clip-rule="nonzero"
         d="m 204,1310 h 138 v 142 H 204 Z m 0,0"
         id="path26" /></clipPath><clipPath
       id="clip-7"><path
         clip-rule="nonzero"
         d="M -4.722656,1341.5469 342.35937,1755.1836 618.33594,1523.6172 271.25,1109.9766 Z m 0,0"
         id="path29" /></clipPath><clipPath
       id="clip-8"><path
         clip-rule="nonzero"
         d="m 181,1437 h 132 v 139 H 181 Z m 0,0"
         id="path32" /></clipPath><clipPath
       id="clip-9"><path
         clip-rule="nonzero"
         d="M -4.722656,1341.5469 342.35937,1755.1836 618.33594,1523.6172 271.25,1109.9766 Z m 0,0"
         id="path35" /></clipPath><clipPath
       id="clip-10"><path
         clip-rule="nonzero"
         d="m 328,1459 h 226 v 115 H 328 Z m 0,0"
         id="path38" /></clipPath><clipPath
       id="clip-11"><path
         clip-rule="nonzero"
         d="M -4.722656,1341.5469 342.35937,1755.1836 618.33594,1523.6172 271.25,1109.9766 Z m 0,0"
         id="path41" /></clipPath><clipPath
       id="clip-12"><path
         clip-rule="nonzero"
         d="m 143,1430 h 54 v 73 h -54 z m 0,0"
         id="path44" /></clipPath><clipPath
       id="clip-13"><path
         clip-rule="nonzero"
         d="M -4.722656,1341.5469 342.35937,1755.1836 618.33594,1523.6172 271.25,1109.9766 Z m 0,0"
         id="path47" /></clipPath></defs><g
     id="g2470"
     transform="translate(-48.5,-1305.6014)"><g
       clip-path="url(#clip-4)"
       id="g226"><g
         clip-path="url(#clip-5)"
         id="g224"><path
           fill-rule="evenodd"
           fill="#ffffff"
           fill-opacity="1"
           d="m 395.92578,1517.832 v 20.1368 l 15.83984,2.789 6.88672,-18.918 c 10.76953,0.3086 21.48828,-1.582 31.50391,-5.5546 l 12.9375,15.4218 13.92969,-8.039 -6.88672,-18.9219 c 8.44531,-6.6875 15.44531,-15.0234 20.5625,-24.5039 l 19.82812,3.5 5.5,-15.1172 -17.43359,-10.0625 c 2.16797,-10.5586 2.17187,-21.4414 0,-31.9922 l 17.43359,-10.0664 -5.5,-15.1133 -19.82812,3.4961 c -5.11719,-9.4804 -12.11328,-17.8164 -20.5625,-24.5078 l 6.88672,-18.918 -13.92578,-8.039 -12.94532,15.4219 c -10.01172,-3.9727 -20.73047,-5.8594 -31.5039,-5.5547 l -6.88282,-18.918 -15.83984,2.793 v 20.1328 c -10.22266,3.3945 -19.65234,8.8359 -27.70312,15.9961 l -17.4336,-10.0703 -10.33984,12.3203 12.9414,15.4258 c -5.65234,9.1718 -9.375,19.3984 -10.9414,30.0585 l -19.82813,3.4961 v 16.0821 l 19.82813,3.4961 c 1.57031,10.6601 5.28906,20.8867 10.9414,30.0586 l -12.9414,15.4257 10.33594,12.3164 17.4375,-10.0625 c 8.05468,7.1563 17.47656,12.5977 27.70312,15.9922 z m 0,0"
           id="path222" /></g></g><g
       clip-path="url(#clip-6)"
       id="g232"><g
         clip-path="url(#clip-7)"
         id="g230"><path
           fill-rule="evenodd"
           fill="#ffffff"
           fill-opacity="1"
           d="m 268.73437,1431.4297 8.76954,20.4297 15.42578,-2.7188 1.25,-22.1953 c 8.14062,-3.7656 15.13281,-9.6328 20.2539,-16.9961 l 22.07422,2.6211 5.35938,-14.7187 -18.59766,-12.1836 c 0.80859,-8.9297 -0.77344,-17.918 -4.58984,-26.0352 l 13.30859,-17.8086 -10.07031,-11.9961 -19.84766,10.0117 c -7.33203,-5.1679 -15.90625,-8.289 -24.84375,-9.0429 l -8.76562,-20.4258 -15.42578,2.7187 -1.25391,22.1954 c -8.14063,3.7656 -15.12891,9.6289 -20.25391,16.9921 l -22.07422,-2.621 -5.35937,14.7226 18.59766,12.1797 c -0.8086,8.9336 0.77734,17.918 4.58984,26.0352 l -13.30469,17.8085 10.06641,12 19.84765,-10.0156 c 7.33204,5.168 15.90625,8.2891 24.84375,9.043 z m 0,0"
           id="path228" /></g></g><g
       clip-path="url(#clip-8)"
       id="g238"><g
         clip-path="url(#clip-9)"
         id="g236"><path
           fill-rule="evenodd"
           fill="#ffffff"
           fill-opacity="1"
           d="m 229.92969,1552.9805 3.11328,21.5195 15.25781,1.332 6.80078,-20.6445 c 8.64453,-1.5 16.73047,-5.2695 23.4336,-10.9297 l 20.1875,8.0625 8.78515,-12.543 -14.48047,-16.2148 c 3.02344,-8.2305 3.80078,-17.1211 2.25,-25.7578 l 17.07813,-13.4531 -6.47266,-13.8789 -21.28125,4.4336 c -5.61719,-6.7344 -12.92578,-11.8555 -21.17969,-14.8282 l -3.10937,-21.5156 -15.26172,-1.3359 -6.79687,20.6484 c -8.64454,1.4961 -16.73047,5.2695 -23.4336,10.9258 l -20.1875,-8.0625 -8.78515,12.5469 14.48046,16.2148 c -3.02343,8.2305 -3.80078,17.1211 -2.2539,25.7539 L 181,1528.707 l 6.47266,13.8828 21.28125,-4.4335 c 5.61718,6.7343 12.92578,11.8515 21.17578,14.8242 z m 0,0"
           id="path234" /></g></g><g
       clip-path="url(#clip-10)"
       id="g244"
       style="fill:#459db9;fill-opacity:0.941176;stroke:#459db9;stroke-opacity:1"><g
         clip-path="url(#clip-11)"
         id="g242"
         style="fill:#459db9;fill-opacity:0.941176;stroke:#459db9;stroke-opacity:1"><path
           fill-rule="evenodd"
           fill="rgb(44.7052%, 62.35199%, 81.175232%)"
           fill-opacity="1"
           d="m 328.29687,1520.168 c 36.26563,54.707 110.01172,69.6601 164.71875,33.3945 28.69532,-19.0234 47.73438,-49.5508 52.1836,-83.6914 l 7.89453,0.3711 -12.96484,-10.4258 -14.73829,9.1211 7.89063,0.375 c -8.17578,58.5 -62.22656,99.2969 -120.73047,91.1211 -30.34766,-4.2383 -57.41797,-21.293 -74.34766,-46.832 z m 0,0"
           id="path240"
           style="fill:#459db9;fill-opacity:0.941176;stroke:#459db9;stroke-opacity:1" /></g></g><g
       clip-path="url(#clip-12)"
       id="g250"
       style="fill:#459db9;fill-opacity:0.941176;stroke:#459db9;stroke-opacity:1"><g
         clip-path="url(#clip-13)"
         id="g248"
         style="fill:#459db9;fill-opacity:0.941176;stroke:#459db9;stroke-opacity:1"><path
           fill-rule="evenodd"
           fill="rgb(44.7052%, 62.35199%, 81.175232%)"
           fill-opacity="1"
           d="m 189.58594,1430.457 c -20.81641,14.6407 -34.55469,37.3243 -37.89844,62.5743 l -7.87109,-0.2071 13.03906,10.1211 14.63281,-9.3828 -7.86328,-0.2109 c 3.1875,-21.4883 15.03906,-40.711 32.78906,-53.1914 z m 0,0"
           id="path246"
           style="fill:#459db9;fill-opacity:0.941176;stroke:#459db9;stroke-opacity:1" /></g></g></g></svg>
