<?xml version="1.0" encoding="UTF-8" standalone="no"?>
<svg
   width="600.00006pt"
   height="275pt"
   viewBox="0 0 600.00006 275"
   version="1.1"
   id="svg300"
   sodipodi:docname="Zeichnung.pdf"
   xml:space="preserve"
   xmlns:inkscape="http://www.inkscape.org/namespaces/inkscape"
   xmlns:sodipodi="http://sodipodi.sourceforge.net/DTD/sodipodi-0.dtd"
   xmlns="http://www.w3.org/2000/svg"
   xmlns:svg="http://www.w3.org/2000/svg"><sodipodi:namedview
     id="namedview302"
     pagecolor="#ffffff"
     bordercolor="#999999"
     borderopacity="1"
     inkscape:showpageshadow="0"
     inkscape:pageopacity="0"
     inkscape:pagecheckerboard="0"
     inkscape:deskcolor="#d1d1d1"
     inkscape:document-units="pt"
     showgrid="false" /><defs
     id="defs60"><filter
       id="filter-remove-color"
       x="0"
       y="0"
       width="1"
       height="1"><feColorMatrix
         color-interpolation-filters="sRGB"
         values="0 0 0 0 1 0 0 0 0 1 0 0 0 0 1 0 0 0 1 0"
         id="feColorMatrix2" /></filter></defs><g
     id="g2453"
     transform="matrix(1.2943387,0,0,1.2950264,79.8432,-2300.5794)"
     style="stroke-width:0.77239"><g
       id="g2156"
       style="stroke-width:0.77239"><path
         fill-rule="nonzero"
         fill="#000000"
         fill-opacity="1"
         stroke-width="4.3789"
         stroke-linecap="butt"
         stroke-linejoin="miter"
         stroke="rgb(91.763306%, 91.763306%, 91.763306%)"
         stroke-opacity="1"
         stroke-miterlimit="4"
         d="m 184.70703,1980.9336 c -4.88281,-1.7422 -8.10937,-4.082 -10.11719,-7.3281 -0.89062,-1.4375 -1.71484,-2.6133 -1.83984,-2.6133 -0.12109,0 -2.17188,0.8906 -4.55469,1.9844 -5.68359,2.6015 -12.78515,3.1484 -18.67187,1.4375 -5.45313,-1.586 -10.78516,-6.6094 -12.8125,-12.0782 -0.75782,-2.0429 -1.4375,-3.8086 -1.50782,-3.914 -0.0664,-0.1094 -1.78125,0.5429 -3.80078,1.4492 -5.22265,2.3398 -15.13281,2.3789 -19.5,0.078 -4.09765,-2.1562 -7.4375,-6.0976 -9.07031,-10.6914 l -1.33594,-3.7656 h -3.816402 c -8.226563,0 -15.316407,-4.4024 -18.316407,-11.375 -1.378906,-3.2109 -1.625,-4.8555 -1.320312,-8.8477 0.207031,-2.6953 0.5,-5.3476 0.652344,-5.8867 0.167968,-0.6015 -1.113282,-1.5273 -3.261719,-2.3594 -12.0625,-4.6679 -17.117188,-17.1562 -11.421875,-28.2109 4.015625,-7.7891 -6.605469,-7.0703 104.460941,-7.0703 107.69921,0 99.65625,-0.3828 104.36328,4.9805 4.5,5.1211 5.625,8.2539 5.625,15.6445 -0.004,5.8516 -0.26953,7.2539 -1.99219,10.5312 -1.92578,3.6602 -8.04688,10.0938 -9.60547,10.0938 -0.46094,0 -0.76562,2.5039 -0.76562,6.2812 0,13.0547 -5.30079,19.8633 -17.94532,23.0469 l -4.82422,1.2149 -1.22265,4.4765 c -3.71485,13.5664 -17.20313,19.75 -29.33985,13.4571 l -3.47656,-1.8047 -2.53515,3.8437 c -4.58204,6.9531 -14.25391,10.211 -22.04688,7.4258 z m 11.87891,-1.7461 c 3.75781,-1.043 8.16015,-5.0898 9.90625,-9.1055 0.76953,-1.7695 1.45703,-3.3125 1.53125,-3.4297 0.0703,-0.121 1.91015,0.8868 4.08203,2.2383 3.33203,2.0703 4.82031,2.5 9.44531,2.7344 4.49219,0.2266 6.10547,-0.02 8.875,-1.3594 5.21875,-2.5273 9.65625,-8.7851 10.30469,-14.5312 0.22656,-1.9961 -0.0312,-2.2188 -4.03516,-3.4688 -14.03125,-4.3906 -20.78515,-14.6484 -19.01172,-28.8593 0.81641,-6.5118 1.91407,-4.8868 1.91407,2.8281 0,4.4336 0.4375,8.2773 1.19531,10.5039 1.55859,4.5742 6.35156,9.4453 11.96484,12.164 10.57422,5.1133 24.72656,0.8711 29.71485,-8.9062 1.85156,-3.6328 2.61328,-10.9883 1.53906,-14.8789 -0.69531,-2.5117 -0.61719,-2.7852 0.87109,-3.1602 2.85547,-0.7187 7.8086,-5.6211 9.8125,-9.7187 4.32422,-8.836 3.0625,-17.2813 -3.61328,-24.1758 l -3.94531,-4.0703 -74.95703,-0.1875 c -129.664065,-0.3242 -120.660159,-0.4219 -123.039065,1.3555 -4.40625,3.2929 -6.832031,12.5351 -4.855469,18.5195 1.289063,3.9101 5.890625,8.8008 10.144532,10.7812 6.363281,2.961 16.878906,1.9414 21.128906,-2.0507 1.859375,-1.7461 3.035156,-1.543 2.292969,0.3906 -0.742188,1.9297 -6.515625,4.3164 -11.679688,4.8281 l -4.949219,0.4883 -1.058593,4.4492 c -1.878907,7.9258 1.199218,14.918 8.265625,18.7813 3.417968,1.8711 4.882812,2.2148 9.480468,2.2187 4.503904,0.01 5.437504,0.2188 5.437504,1.2227 0,2.8554 4.58203,10.3047 7.63672,12.4218 2.90234,2.0118 3.60156,2.1563 10.30078,2.1485 5.78906,-0.01 7.8789,-0.3281 10.75,-1.6446 3.33203,-1.5312 3.5625,-1.8242 3.57812,-4.4921 0.0234,-4.2579 4,-12.2305 6.10156,-12.2305 1.16797,0 0.64844,1.6406 -1.22265,3.8633 -5.12891,6.0937 -4.1875,16.7226 2.03906,23.0898 6.82031,6.9766 18.84375,7.7891 27.64453,1.8672 l 3.6875,-2.4805 1.15625,2.7657 c 3.32422,7.957 12.19141,11.6953 21.56641,9.0898 z m -11.38282,-23.5508 c -2.2539,-3.3125 -3.78125,-7.5937 -3.82421,-10.7187 l -0.0312,-2.4492 -3.82422,1.9375 c -2.10547,1.0664 -4.04297,1.7187 -4.3125,1.4492 -0.60938,-0.6094 1.51953,-2.2227 5.92578,-4.4883 3.08984,-1.582 3.68359,-2.3516 6.17969,-8 3.97265,-8.9961 5.03125,-12.3828 5.03125,-16.1172 0,-8.7109 -7.1836,-16.0078 -15.75782,-16.0078 -4.58593,0 -7.28906,1.2969 -12.12109,5.8203 -2.00391,1.8711 -3.84375,3.207 -4.08984,2.9609 -0.77344,-0.7734 2.6914,-4.9414 5.95703,-7.1718 7.99218,-5.461 15.82812,-4.9219 22.18359,1.5234 7.58594,7.6875 7.39844,16.2148 -0.69531,32.125 -3.09766,6.0859 -3.21485,10.0938 -0.45703,15.5391 1.07422,2.1172 2.30078,4.0625 2.72656,4.3281 0.79297,0.4883 0.33984,1.8789 -0.60156,1.8711 -0.28516,0 -1.31641,-1.1758 -2.28907,-2.6016 z m -64.23046,-21.1406 c -5.47266,-2.8789 -8.625,-7.3516 -8.625,-12.2422 0,-4.1055 1.51172,-7.4726 4.78125,-10.6484 l 2.71484,-2.6367 -1.57422,-1.4219 c -0.86719,-0.7852 -2.04687,-2.3399 -2.625,-3.4531 -1.21094,-2.3399 -1.40234,-6.6016 -0.29687,-6.6016 0.41015,0 0.75,0.6875 0.75,1.5234 0,5.375 4.72265,9.7188 10.5664,9.7227 4.73047,0.01 10.82031,3.1992 18.6836,9.8047 7.46093,6.2656 11.11328,8.1601 15.75,8.1797 4.83984,0.019 10.60937,-4 14.01562,-9.7696 1.38672,-2.3437 2.48438,-2.875 2.48438,-1.1992 0,1.2109 -3.57032,6.1992 -6.09766,8.5156 -0.98828,0.9063 -3.44141,2.375 -5.44922,3.2657 -6.44141,2.8476 -10.99219,1.2343 -22.32031,-7.9102 -8.4375,-6.8086 -12.37891,-8.8398 -17.94141,-9.2422 -3.85547,-0.2773 -4.42578,-0.1094 -6.89843,2.0625 -3.23829,2.8438 -5.42969,8.0547 -4.76954,11.3477 0.67188,3.375 3.10547,6.4179 6.89844,8.6406 1.83203,1.0742 3.32813,2.2578 3.32813,2.6289 0,0.9414 -0.75782,0.8125 -3.375,-0.5664 z m 112.125,-7.6641 c 0,-0.3593 0.5039,-1.8672 1.125,-3.3476 1.65234,-3.9571 1.43359,-12.1172 -0.4375,-16.2422 -3.61719,-7.9766 -10.73438,-11.5274 -17.46485,-8.7149 -3.28125,1.3711 -7.69922,5.9922 -9.9375,10.4024 -1.73828,3.4219 -3.28515,4.6367 -3.28515,2.5859 0,-1.2929 4.125,-7.8359 6.63671,-10.5312 4.88282,-5.2344 12.6836,-6.5586 18.51563,-3.1406 2.93359,1.7187 7.84766,7.9882 7.84766,10.0117 0,1.2109 3.28515,1.8906 6.34765,1.3164 1.64844,-0.3086 3.26172,-1.3477 4.45313,-2.8711 2.15234,-2.75 3.1875,-2.4531 1.83203,0.5273 -1.19922,2.6289 -4.25,4.1641 -8.28516,4.1641 h -3.22265 l -0.0898,5.4375 c -0.0898,5.375 -1.78515,11.0586 -3.29687,11.0586 -0.40625,0 -0.73828,-0.293 -0.73828,-0.6563 z m 0,0"
         id="path296"
         style="stroke:#ffffff;stroke-opacity:1" /><path
         fill-rule="nonzero"
         fill="#000000"
         fill-opacity="1"
         stroke-width="4.3789"
         stroke-linecap="butt"
         stroke-linejoin="miter"
         stroke="rgb(91.763306%, 91.763306%, 91.763306%)"
         stroke-opacity="1"
         stroke-miterlimit="4"
         d="m 184.70703,1784.3633 c -4.88281,1.7422 -8.10937,4.082 -10.11719,7.3281 -0.89062,1.4375 -1.71484,2.6133 -1.83984,2.6133 -0.12109,0 -2.17188,-0.8945 -4.55469,-1.9844 -5.68359,-2.6015 -12.78515,-3.1484 -18.67187,-1.4375 -5.45313,1.582 -10.78516,6.6094 -12.8125,12.0742 -0.75782,2.0469 -1.4375,3.8086 -1.50782,3.918 -0.0664,0.1094 -1.78125,-0.543 -3.80078,-1.4492 -5.22265,-2.3399 -15.13281,-2.3789 -19.5,-0.078 -4.09765,2.1562 -7.4375,6.0976 -9.07031,10.6914 l -1.33594,3.7656 h -3.816402 c -8.226563,0 -15.316407,4.4023 -18.316407,11.375 -1.378906,3.2109 -1.625,4.8516 -1.320312,8.8476 0.207031,2.6954 0.5,5.3438 0.652344,5.8868 0.167968,0.5976 -1.113282,1.5234 -3.261719,2.3554 -12.0625,4.6719 -17.117188,17.1602 -11.421875,28.2149 4.015625,7.789 -6.605469,7.0703 104.460941,7.0703 107.69921,0 99.65625,0.3828 104.36328,-4.9805 4.5,-5.125 5.625,-8.2539 5.625,-15.6445 -0.004,-5.8516 -0.26953,-7.2539 -1.99219,-10.5313 -1.92578,-3.6601 -8.04688,-10.0937 -9.60547,-10.0937 -0.46094,0 -0.76562,-2.5039 -0.76562,-6.2813 0,-13.0586 -5.30079,-19.8632 -17.94532,-23.0507 l -4.82422,-1.2149 -1.22265,-4.4726 c -3.71485,-13.5664 -17.20313,-19.7539 -29.33985,-13.4571 l -3.47656,1.8047 -2.53515,-3.8437 c -4.58204,-6.9532 -14.25391,-10.211 -22.04688,-7.4258 z m 11.87891,1.7461 c 3.75781,1.0429 8.16015,5.0898 9.90625,9.1054 0.76953,1.7696 1.45703,3.3125 1.53125,3.4297 0.0703,0.1211 1.91015,-0.8906 4.08203,-2.2422 3.33203,-2.0664 4.82031,-2.5 9.44531,-2.7343 4.49219,-0.2266 6.10547,0.023 8.875,1.3633 5.21875,2.5273 9.65625,8.7812 10.30469,14.5312 0.22656,1.9922 -0.0312,2.2148 -4.03516,3.4688 -14.03125,4.3906 -20.78515,14.6445 -19.01172,28.8593 0.81641,6.5117 1.91407,4.8867 1.91407,-2.8281 0,-4.4336 0.4375,-8.2773 1.19531,-10.5078 1.55859,-4.5703 6.35156,-9.4414 11.96484,-12.1602 10.57422,-5.1132 24.72656,-0.875 29.71485,8.9063 1.85156,3.6328 2.61328,10.9883 1.53906,14.8789 -0.69531,2.5117 -0.61719,2.7851 0.87109,3.1601 2.85547,0.7149 7.8086,5.6211 9.8125,9.7149 4.32422,8.8398 3.0625,17.2851 -3.61328,24.1758 l -3.94531,4.0742 -74.95703,0.1875 c -129.664065,0.3242 -120.660159,0.4219 -123.039065,-1.3555 -4.40625,-3.2929 -6.832031,-12.5351 -4.855469,-18.5195 1.289063,-3.9141 5.890625,-8.8047 10.144532,-10.7852 6.363281,-2.9609 16.878906,-1.9375 21.128906,2.0547 1.859375,1.7422 3.035156,1.543 2.292969,-0.3906 -0.742188,-1.9297 -6.515625,-4.3164 -11.679688,-4.8281 l -4.949219,-0.4883 -1.058593,-4.4531 c -1.878907,-7.9219 1.199218,-14.918 8.265625,-18.7813 3.417968,-1.8672 4.882812,-2.2109 9.480468,-2.2187 4.503904,-0.01 5.437504,-0.2149 5.437504,-1.2188 0,-2.8555 4.58203,-10.3047 7.63672,-12.4219 2.90234,-2.0117 3.60156,-2.1562 10.30078,-2.1484 5.78906,0.01 7.8789,0.3242 10.75,1.6445 3.33203,1.5313 3.5625,1.8203 3.57812,4.4922 0.0234,4.2578 4,12.2305 6.10156,12.2305 1.16797,0 0.64844,-1.6406 -1.22265,-3.8633 -5.12891,-6.0937 -4.1875,-16.7226 2.03906,-23.0898 6.82031,-6.9805 18.84375,-7.793 27.64453,-1.8711 l 3.6875,2.4843 1.15625,-2.7695 c 3.32422,-7.957 12.19141,-11.6914 21.56641,-9.0859 z m -11.38282,23.5508 c -2.2539,3.3125 -3.78125,7.5937 -3.82421,10.7187 l -0.0312,2.4492 -3.82422,-1.9375 c -2.10547,-1.0664 -4.04297,-1.7187 -4.3125,-1.4492 -0.60938,0.6094 1.51953,2.2227 5.92578,4.4844 3.08984,1.5859 3.68359,2.3555 6.17969,8.0039 3.97265,8.9961 5.03125,12.3828 5.03125,16.1172 0,8.707 -7.1836,16.0078 -15.75782,16.0078 -4.58593,0 -7.28906,-1.2969 -12.12109,-5.8203 -2.00391,-1.875 -3.84375,-3.2071 -4.08984,-2.961 -0.77344,0.7696 2.6914,4.9375 5.95703,7.1719 7.99218,5.457 15.82812,4.9219 22.18359,-1.5234 7.58594,-7.6875 7.39844,-16.2149 -0.69531,-32.1289 -3.09766,-6.0821 -3.21485,-10.0899 -0.45703,-15.5352 1.07422,-2.1172 2.30078,-4.0625 2.72656,-4.3281 0.79297,-0.4883 0.33984,-1.8789 -0.60156,-1.8711 -0.28516,0 -1.31641,1.1719 -2.28907,2.6016 z m -64.23046,21.1367 c -5.47266,2.8828 -8.625,7.3554 -8.625,12.2422 0,4.1093 1.51172,7.4765 4.78125,10.6523 l 2.71484,2.6328 -1.57422,1.4258 c -0.86719,0.7852 -2.04687,2.3359 -2.625,3.4531 -1.21094,2.3399 -1.40234,6.6016 -0.29687,6.6016 0.41015,0 0.75,-0.6875 0.75,-1.5234 0,-5.375 4.72265,-9.7188 10.5664,-9.7266 4.73047,0 10.82031,-3.1992 18.6836,-9.8008 7.46093,-6.2656 11.11328,-8.1641 15.75,-8.1797 4.83984,-0.02 10.60937,4 14.01562,9.7656 1.38672,2.3477 2.48438,2.879 2.48438,1.2032 0,-1.211 -3.57032,-6.1992 -6.09766,-8.5157 -0.98828,-0.9062 -3.44141,-2.3789 -5.44922,-3.2656 -6.44141,-2.8476 -10.99219,-1.2383 -22.32031,7.9063 -8.4375,6.8125 -12.37891,8.8437 -17.94141,9.2461 -3.85547,0.2773 -4.42578,0.1054 -6.89843,-2.0625 -3.23829,-2.8438 -5.42969,-8.0547 -4.76954,-11.3477 0.67188,-3.375 3.10547,-6.418 6.89844,-8.6445 1.83203,-1.0703 3.32813,-2.2539 3.32813,-2.6289 0,-0.9375 -0.75782,-0.8086 -3.375,0.5664 z m 112.125,7.664 c 0,0.3633 0.5039,1.8711 1.125,3.3516 1.65234,3.957 1.43359,12.1133 -0.4375,16.2422 -3.61719,7.9726 -10.73438,11.5273 -17.46485,8.7148 -3.28125,-1.3711 -7.69922,-5.9961 -9.9375,-10.4023 -1.73828,-3.4219 -3.28515,-4.6406 -3.28515,-2.5859 0,1.289 4.125,7.832 6.63671,10.5273 4.88282,5.2383 12.6836,6.5625 18.51563,3.1445 2.93359,-1.7226 7.84766,-7.9883 7.84766,-10.0117 0,-1.2109 3.28515,-1.8906 6.34765,-1.3164 1.64844,0.3086 3.26172,1.3477 4.45313,2.8711 2.15234,2.75 3.1875,2.4492 1.83203,-0.5273 -1.19922,-2.629 -4.25,-4.1641 -8.28516,-4.168 h -3.22265 l -0.0898,-5.4336 c -0.0898,-5.375 -1.78515,-11.0625 -3.29687,-11.0625 -0.40625,0 -0.73828,0.2969 -0.73828,0.6601 z m 0,0"
         id="path298"
         style="stroke:#ffffff;stroke-opacity:1" /></g></g></svg>
