<?xml version="1.0" encoding="UTF-8" standalone="no"?>
<svg
   width="600pt"
   height="275pt"
   viewBox="0 0 600 275"
   version="1.1"
   id="svg300"
   sodipodi:docname="Zeichnung.pdf"
   xml:space="preserve"
   xmlns:inkscape="http://www.inkscape.org/namespaces/inkscape"
   xmlns:sodipodi="http://sodipodi.sourceforge.net/DTD/sodipodi-0.dtd"
   xmlns="http://www.w3.org/2000/svg"
   xmlns:svg="http://www.w3.org/2000/svg"><sodipodi:namedview
     id="namedview302"
     pagecolor="#ffffff"
     bordercolor="#999999"
     borderopacity="1"
     inkscape:showpageshadow="0"
     inkscape:pageopacity="0"
     inkscape:pagecheckerboard="0"
     inkscape:deskcolor="#d1d1d1"
     inkscape:document-units="pt"
     showgrid="false" /><defs
     id="defs60"><filter
       id="filter-remove-color"
       x="0"
       y="0"
       width="1"
       height="1"><feColorMatrix
         color-interpolation-filters="sRGB"
         values="0 0 0 0 1 0 0 0 0 1 0 0 0 0 1 0 0 0 1 0"
         id="feColorMatrix2" /></filter></defs><g
     id="g2518"
     transform="translate(-32.3301,-492.0742)"><path
       fill="none"
       stroke-width="5.85354"
       stroke-linecap="square"
       stroke-linejoin="miter"
       stroke="#ffffff"
       stroke-opacity="1"
       stroke-miterlimit="4"
       d="m 362.66016,-663.90234 c 0,16.75 -13.58204,30.33203 -30.33204,30.33203 -16.75,0 -30.33203,-13.58203 -30.33203,-30.33203 0,-16.75391 13.58203,-30.33203 30.33203,-30.33203 16.75,0 30.33204,13.57812 30.33204,30.33203 z m 0,0"
       transform="scale(1,-1)"
       id="path146" /><path
       fill-rule="evenodd"
       fill="#ffffff"
       fill-opacity="1"
       d="m 362.66016,663.90234 c 0,-16.75 -13.58204,-30.33203 -30.33204,-30.33203 -16.75,0 -30.33203,13.58203 -30.33203,30.33203 0,16.75391 13.58203,30.33203 30.33203,30.33203 16.75,0 30.33204,-13.57812 30.33204,-30.33203 z m 0,0"
       id="path148" /><path
       fill="none"
       stroke-width="5.85354"
       stroke-linecap="square"
       stroke-linejoin="miter"
       stroke="#ffffff"
       stroke-opacity="1"
       stroke-miterlimit="4"
       d="m 362.66016,-595.24219 c 0,16.75 -13.58204,30.33203 -30.33204,30.33203 -16.75,0 -30.33203,-13.58203 -30.33203,-30.33203 0,-16.75 13.58203,-30.33203 30.33203,-30.33203 16.75,0 30.33204,13.58203 30.33204,30.33203 z m 0,0"
       transform="scale(1,-1)"
       id="path150" /><path
       fill-rule="evenodd"
       fill="#ffffff"
       fill-opacity="1"
       d="m 362.66016,595.24219 c 0,-16.75 -13.58204,-30.33203 -30.33204,-30.33203 -16.75,0 -30.33203,13.58203 -30.33203,30.33203 0,16.75 13.58203,30.33203 30.33203,30.33203 16.75,0 30.33204,-13.58203 30.33204,-30.33203 z m 0,0"
       id="path152" /><path
       fill="none"
       stroke-width="5.85354"
       stroke-linecap="square"
       stroke-linejoin="miter"
       stroke="rgb(68.234253%, 74.508667%, 81.175232%)"
       stroke-opacity="1"
       stroke-miterlimit="4"
       d="m 247.89453,-698.23437 c 0,16.7539 -13.58203,30.33203 -30.33203,30.33203 -16.75,0 -30.33203,-13.57813 -30.33203,-30.33203 0,-16.75 13.58203,-30.33204 30.33203,-30.33204 16.75,0 30.33203,13.58204 30.33203,30.33204 z m 0,0"
       transform="scale(1,-1)"
       id="path154"
       style="fill:#99cad9;fill-opacity:1;stroke:#99cad9;stroke-opacity:1" /><path
       fill-rule="evenodd"
       fill="rgb(68.234253%, 74.508667%, 81.175232%)"
       fill-opacity="1"
       d="m 247.89453,698.23437 c 0,-16.7539 -13.58203,-30.33203 -30.33203,-30.33203 -16.75,0 -30.33203,13.57813 -30.33203,30.33203 0,16.75 13.58203,30.33204 30.33203,30.33204 16.75,0 30.33203,-13.58204 30.33203,-30.33204 z m 0,0"
       id="path156"
       style="fill:#99cad9;fill-opacity:1;stroke:#99cad9;stroke-opacity:1" /><path
       fill="none"
       stroke-width="5.85354"
       stroke-linecap="square"
       stroke-linejoin="miter"
       stroke="rgb(68.234253%, 74.508667%, 81.175232%)"
       stroke-opacity="1"
       stroke-miterlimit="4"
       d="m 247.89453,-629.57422 c 0,16.75391 -13.58203,30.33203 -30.33203,30.33203 -16.75,0 -30.33203,-13.57812 -30.33203,-30.33203 0,-16.75 13.58203,-30.32812 30.33203,-30.32812 16.75,0 30.33203,13.57812 30.33203,30.32812 z m 0,0"
       transform="scale(1,-1)"
       id="path158"
       style="fill:#99cad9;fill-opacity:1;stroke:#99cad9;stroke-opacity:1" /><path
       fill-rule="evenodd"
       fill="rgb(68.234253%, 74.508667%, 81.175232%)"
       fill-opacity="1"
       d="m 247.89453,629.57422 c 0,-16.75391 -13.58203,-30.33203 -30.33203,-30.33203 -16.75,0 -30.33203,13.57812 -30.33203,30.33203 0,16.75 13.58203,30.32812 30.33203,30.32812 16.75,0 30.33203,-13.57812 30.33203,-30.32812 z m 0,0"
       id="path160"
       style="fill:#99cad9;fill-opacity:1;stroke:#99cad9;stroke-opacity:1" /><path
       fill="none"
       stroke-width="5.85354"
       stroke-linecap="square"
       stroke-linejoin="miter"
       stroke="rgb(68.234253%, 74.508667%, 81.175232%)"
       stroke-opacity="1"
       stroke-miterlimit="4"
       d="m 247.89453,-560.91406 c 0,16.7539 -13.58203,30.33203 -30.33203,30.33203 -16.75,0 -30.33203,-13.57813 -30.33203,-30.33203 0,-16.75 13.58203,-30.32813 30.33203,-30.32813 16.75,0 30.33203,13.57813 30.33203,30.32813 z m 0,0"
       transform="scale(1,-1)"
       id="path162"
       style="fill:#99cad9;fill-opacity:1;stroke:#99cad9;stroke-opacity:1" /><path
       fill-rule="evenodd"
       fill="rgb(68.234253%, 74.508667%, 81.175232%)"
       fill-opacity="1"
       d="m 247.89453,560.91406 c 0,-16.7539 -13.58203,-30.33203 -30.33203,-30.33203 -16.75,0 -30.33203,13.57813 -30.33203,30.33203 0,16.75 13.58203,30.32813 30.33203,30.32813 16.75,0 30.33203,-13.57813 30.33203,-30.32813 z m 0,0"
       id="path164"
       style="fill:#99cad9;fill-opacity:1;stroke:#99cad9;stroke-opacity:1" /><path
       fill="none"
       stroke-width="5.85354"
       stroke-linecap="square"
       stroke-linejoin="miter"
       stroke="rgb(68.234253%, 74.508667%, 81.175232%)"
       stroke-opacity="1"
       stroke-miterlimit="4"
       d="m 477.42578,-698.23437 c 0,16.7539 -13.58203,30.33203 -30.33203,30.33203 -16.75,0 -30.33203,-13.57813 -30.33203,-30.33203 0,-16.75 13.58203,-30.33204 30.33203,-30.33204 16.75,0 30.33203,13.58204 30.33203,30.33204 z m 0,0"
       transform="scale(1,-1)"
       id="path166"
       style="fill:#99cad9;fill-opacity:1;stroke:#99cad9;stroke-opacity:1" /><path
       fill-rule="evenodd"
       fill="rgb(68.234253%, 74.508667%, 81.175232%)"
       fill-opacity="1"
       d="m 477.42578,698.23437 c 0,-16.7539 -13.58203,-30.33203 -30.33203,-30.33203 -16.75,0 -30.33203,13.57813 -30.33203,30.33203 0,16.75 13.58203,30.33204 30.33203,30.33204 16.75,0 30.33203,-13.58204 30.33203,-30.33204 z m 0,0"
       id="path168"
       style="fill:#99cad9;fill-opacity:1;stroke:#99cad9;stroke-opacity:1" /><path
       fill="none"
       stroke-width="5.85354"
       stroke-linecap="square"
       stroke-linejoin="miter"
       stroke="rgb(68.234253%, 74.508667%, 81.175232%)"
       stroke-opacity="1"
       stroke-miterlimit="4"
       d="m 477.42578,-629.57422 c 0,16.75391 -13.58203,30.33203 -30.33203,30.33203 -16.75,0 -30.33203,-13.57812 -30.33203,-30.33203 0,-16.75 13.58203,-30.32812 30.33203,-30.32812 16.75,0 30.33203,13.57812 30.33203,30.32812 z m 0,0"
       transform="scale(1,-1)"
       id="path170"
       style="fill:#99cad9;fill-opacity:1;stroke:#99cad9;stroke-opacity:1" /><path
       fill-rule="evenodd"
       fill="rgb(68.234253%, 74.508667%, 81.175232%)"
       fill-opacity="1"
       d="m 477.42578,629.57422 c 0,-16.75391 -13.58203,-30.33203 -30.33203,-30.33203 -16.75,0 -30.33203,13.57812 -30.33203,30.33203 0,16.75 13.58203,30.32812 30.33203,30.32812 16.75,0 30.33203,-13.57812 30.33203,-30.32812 z m 0,0"
       id="path172"
       style="fill:#99cad9;fill-opacity:1;stroke:#99cad9;stroke-opacity:1" /><path
       fill="none"
       stroke-width="5.85354"
       stroke-linecap="square"
       stroke-linejoin="miter"
       stroke="rgb(68.234253%, 74.508667%, 81.175232%)"
       stroke-opacity="1"
       stroke-miterlimit="4"
       d="m 477.42578,-560.91406 c 0,16.7539 -13.58203,30.33203 -30.33203,30.33203 -16.75,0 -30.33203,-13.57813 -30.33203,-30.33203 0,-16.75 13.58203,-30.32813 30.33203,-30.32813 16.75,0 30.33203,13.57813 30.33203,30.32813 z m 0,0"
       transform="scale(1,-1)"
       id="path174"
       style="fill:#99cad9;fill-opacity:1;stroke:#99cad9;stroke-opacity:1" /><path
       fill-rule="evenodd"
       fill="rgb(68.234253%, 74.508667%, 81.175232%)"
       fill-opacity="1"
       d="m 477.42578,560.91406 c 0,-16.7539 -13.58203,-30.33203 -30.33203,-30.33203 -16.75,0 -30.33203,13.57813 -30.33203,30.33203 0,16.75 13.58203,30.32813 30.33203,30.32813 16.75,0 30.33203,-13.57813 30.33203,-30.32813 z m 0,0"
       id="path176"
       style="fill:#99cad9;fill-opacity:1;stroke:#99cad9;stroke-opacity:1" /><path
       fill="none"
       stroke-width="5.85354"
       stroke-linecap="square"
       stroke-linejoin="miter"
       stroke="rgb(44.7052%, 62.35199%, 81.175232%)"
       stroke-opacity="1"
       stroke-miterlimit="4"
       d="m 583.42578,525.61328 c 0,16.75391 -13.58203,30.33203 -30.33203,30.33203 -16.75391,0 -30.33203,-13.57812 -30.33203,-30.33203 0,-16.75 13.57812,-30.32812 30.33203,-30.32812 16.75,0 30.33203,13.57812 30.33203,30.32812 z m 0,0"
       id="path178"
       style="fill:#459db9;fill-opacity:0.941176;stroke:#459db9;stroke-opacity:1" /><path
       fill-rule="evenodd"
       fill="rgb(44.7052%, 62.35199%, 81.175232%)"
       fill-opacity="1"
       d="m 583.42578,525.61328 c 0,16.75391 -13.58203,30.33203 -30.33203,30.33203 -16.75391,0 -30.33203,-13.57812 -30.33203,-30.33203 0,-16.75 13.57812,-30.32812 30.33203,-30.32812 16.75,0 30.33203,13.57812 30.33203,30.32812 z m 0,0"
       id="path180"
       style="fill:#459db9;fill-opacity:0.941176;stroke:#459db9;stroke-opacity:1" /><path
       fill="none"
       stroke-width="5.85354"
       stroke-linecap="square"
       stroke-linejoin="miter"
       stroke="rgb(44.7052%, 62.35199%, 81.175232%)"
       stroke-opacity="1"
       stroke-miterlimit="4"
       d="m 583.42578,733.53125 c 0,16.75 -13.58203,30.33203 -30.33203,30.33203 -16.75391,0 -30.33203,-13.58203 -30.33203,-30.33203 0,-16.75 13.57812,-30.33203 30.33203,-30.33203 16.75,0 30.33203,13.58203 30.33203,30.33203 z m 0,0"
       id="path182"
       style="fill:#459db9;fill-opacity:0.941176;stroke:#459db9;stroke-opacity:1" /><path
       fill-rule="evenodd"
       fill="rgb(44.7052%, 62.35199%, 81.175232%)"
       fill-opacity="1"
       d="m 583.42578,733.53125 c 0,16.75 -13.58203,30.33203 -30.33203,30.33203 -16.75391,0 -30.33203,-13.58203 -30.33203,-30.33203 0,-16.75 13.57812,-30.33203 30.33203,-30.33203 16.75,0 30.33203,13.58203 30.33203,30.33203 z m 0,0"
       id="path184"
       style="fill:#459db9;fill-opacity:0.941176;stroke:#459db9;stroke-opacity:1" /><path
       fill="none"
       stroke-width="5.85354"
       stroke-linecap="square"
       stroke-linejoin="miter"
       stroke="rgb(44.7052%, 62.35199%, 81.175232%)"
       stroke-opacity="1"
       stroke-miterlimit="4"
       d="m 583.42578,664.22656 c 0,16.75 -13.58203,30.32813 -30.33203,30.32813 -16.75391,0 -30.33203,-13.57813 -30.33203,-30.32813 0,-16.7539 13.57812,-30.33203 30.33203,-30.33203 16.75,0 30.33203,13.57813 30.33203,30.33203 z m 0,0"
       id="path186"
       style="fill:#459db9;fill-opacity:0.941176;stroke:#459db9;stroke-opacity:1" /><path
       fill-rule="evenodd"
       fill="rgb(44.7052%, 62.35199%, 81.175232%)"
       fill-opacity="1"
       d="m 583.42578,664.22656 c 0,16.75 -13.58203,30.32813 -30.33203,30.32813 -16.75391,0 -30.33203,-13.57813 -30.33203,-30.32813 0,-16.7539 13.57812,-30.33203 30.33203,-30.33203 16.75,0 30.33203,13.57813 30.33203,30.33203 z m 0,0"
       id="path188"
       style="fill:#459db9;fill-opacity:0.941176;stroke:#459db9;stroke-opacity:1" /><path
       fill="none"
       stroke-width="5.85354"
       stroke-linecap="square"
       stroke-linejoin="miter"
       stroke="rgb(44.7052%, 62.35199%, 81.175232%)"
       stroke-opacity="1"
       stroke-miterlimit="4"
       d="m 583.42578,594.92187 c 0,16.75 -13.58203,30.32813 -30.33203,30.32813 -16.75391,0 -30.33203,-13.57813 -30.33203,-30.32813 0,-16.7539 13.57812,-30.33203 30.33203,-30.33203 16.75,0 30.33203,13.57813 30.33203,30.33203 z m 0,0"
       id="path190"
       style="fill:#459db9;fill-opacity:0.941176;stroke:#459db9;stroke-opacity:1" /><path
       fill-rule="evenodd"
       fill="rgb(44.7052%, 62.35199%, 81.175232%)"
       fill-opacity="1"
       d="m 583.42578,594.92187 c 0,16.75 -13.58203,30.32813 -30.33203,30.32813 -16.75391,0 -30.33203,-13.57813 -30.33203,-30.32813 0,-16.7539 13.57812,-30.33203 30.33203,-30.33203 16.75,0 30.33203,13.57813 30.33203,30.33203 z m 0,0"
       id="path192"
       style="fill:#459db9;fill-opacity:0.941176;stroke:#459db9;stroke-opacity:1" /><path
       fill="none"
       stroke-width="5.85354"
       stroke-linecap="square"
       stroke-linejoin="miter"
       stroke="rgb(44.7052%, 62.35199%, 81.175232%)"
       stroke-opacity="1"
       stroke-miterlimit="4"
       d="m 141.89453,525.61328 c 0,16.75391 -13.57812,30.33203 -30.33203,30.33203 -16.75,0 -30.328125,-13.57812 -30.328125,-30.33203 0,-16.75 13.578125,-30.32812 30.328125,-30.32812 16.75391,0 30.33203,13.57812 30.33203,30.32812 z m 0,0"
       id="path194"
       style="fill:#459db9;fill-opacity:0.941176;stroke:#459db9;stroke-opacity:1" /><path
       fill-rule="evenodd"
       fill="rgb(44.7052%, 62.35199%, 81.175232%)"
       fill-opacity="1"
       d="m 141.89453,525.61328 c 0,16.75391 -13.57812,30.33203 -30.33203,30.33203 -16.75,0 -30.328125,-13.57812 -30.328125,-30.33203 0,-16.75 13.578125,-30.32812 30.328125,-30.32812 16.75391,0 30.33203,13.57812 30.33203,30.32812 z m 0,0"
       id="path196"
       style="fill:#459db9;fill-opacity:0.941176;stroke:#459db9;stroke-opacity:1" /><path
       fill="none"
       stroke-width="5.85354"
       stroke-linecap="square"
       stroke-linejoin="miter"
       stroke="rgb(44.7052%, 62.35199%, 81.175232%)"
       stroke-opacity="1"
       stroke-miterlimit="4"
       d="m 141.89453,733.53125 c 0,16.75 -13.57812,30.33203 -30.33203,30.33203 -16.75,0 -30.328125,-13.58203 -30.328125,-30.33203 0,-16.75 13.578125,-30.33203 30.328125,-30.33203 16.75391,0 30.33203,13.58203 30.33203,30.33203 z m 0,0"
       id="path198"
       style="fill:#459db9;fill-opacity:0.941176;stroke:#459db9;stroke-opacity:1" /><path
       fill-rule="evenodd"
       fill="rgb(44.7052%, 62.35199%, 81.175232%)"
       fill-opacity="1"
       d="m 141.89453,733.53125 c 0,16.75 -13.57812,30.33203 -30.33203,30.33203 -16.75,0 -30.328125,-13.58203 -30.328125,-30.33203 0,-16.75 13.578125,-30.33203 30.328125,-30.33203 16.75391,0 30.33203,13.58203 30.33203,30.33203 z m 0,0"
       id="path200"
       style="fill:#459db9;fill-opacity:0.941176;stroke:#459db9;stroke-opacity:1" /><path
       fill="none"
       stroke-width="5.85354"
       stroke-linecap="square"
       stroke-linejoin="miter"
       stroke="rgb(44.7052%, 62.35199%, 81.175232%)"
       stroke-opacity="1"
       stroke-miterlimit="4"
       d="m 141.89453,664.22656 c 0,16.75 -13.57812,30.32813 -30.33203,30.32813 -16.75,0 -30.328125,-13.57813 -30.328125,-30.32813 0,-16.7539 13.578125,-30.33203 30.328125,-30.33203 16.75391,0 30.33203,13.57813 30.33203,30.33203 z m 0,0"
       id="path202"
       style="fill:#459db9;fill-opacity:0.941176;stroke:#459db9;stroke-opacity:1" /><path
       fill-rule="evenodd"
       fill="rgb(44.7052%, 62.35199%, 81.175232%)"
       fill-opacity="1"
       d="m 141.89453,664.22656 c 0,16.75 -13.57812,30.32813 -30.33203,30.32813 -16.75,0 -30.328125,-13.57813 -30.328125,-30.32813 0,-16.7539 13.578125,-30.33203 30.328125,-30.33203 16.75391,0 30.33203,13.57813 30.33203,30.33203 z m 0,0"
       id="path204"
       style="fill:#459db9;fill-opacity:0.941176;stroke:#459db9;stroke-opacity:1" /><path
       fill="none"
       stroke-width="5.85354"
       stroke-linecap="square"
       stroke-linejoin="miter"
       stroke="rgb(44.7052%, 62.35199%, 81.175232%)"
       stroke-opacity="1"
       stroke-miterlimit="4"
       d="m 141.89453,594.92187 c 0,16.75 -13.57812,30.32813 -30.33203,30.32813 -16.75,0 -30.328125,-13.57813 -30.328125,-30.32813 0,-16.7539 13.578125,-30.33203 30.328125,-30.33203 16.75391,0 30.33203,13.57813 30.33203,30.33203 z m 0,0"
       id="path206"
       style="fill:#459db9;fill-opacity:0.941176;stroke:#459db9;stroke-opacity:1" /><path
       fill-rule="evenodd"
       fill="rgb(44.7052%, 62.35199%, 81.175232%)"
       fill-opacity="1"
       d="m 141.89453,594.92187 c 0,16.75 -13.57812,30.32813 -30.33203,30.32813 -16.75,0 -30.328125,-13.57813 -30.328125,-30.32813 0,-16.7539 13.578125,-30.33203 30.328125,-30.33203 16.75391,0 30.33203,13.57813 30.33203,30.33203 z m 0,0"
       id="path208"
       style="fill:#459db9;fill-opacity:0.941176;stroke:#459db9;stroke-opacity:1" /></g></svg>
